<?xml version="1.0" encoding="utf-8"?>
<!-- Generator: Adobe Illustrator 14.0.0, SVG Export Plug-In . SVG Version: 6.00 Build 43363)  -->
<!DOCTYPE svg PUBLIC "-//W3C//DTD SVG 1.1//EN" "http://www.w3.org/Graphics/SVG/1.1/DTD/svg11.dtd">
<svg version="1.1" xmlns="http://www.w3.org/2000/svg" xmlns:xlink="http://www.w3.org/1999/xlink" x="0px" y="0px" width="56.69px"
	 height="56.69px" viewBox="0 0 56.69 56.69" enable-background="new 0 0 56.69 56.69" xml:space="preserve">
<g id="Calque_2" display="none">
	
		<image display="inline" overflow="visible" width="372" height="556" xlink:href="\\fic\appli$\Arcview\Arc_View_9_3\Projets\Cartes Diverses\_2015\Leaflet - Label test\urne.jpg"  transform="matrix(0.0576 0 0 0.0576 18.394 12.335)">
	</image>
</g>
<g id="Calque_1">
	
		<rect x="12.168" y="26.134" fill="#DDDDDD" stroke="#1A171B" stroke-width="0.5" stroke-linecap="round" stroke-linejoin="round" width="26.953" height="27.706"/>
	<polygon fill="#B2B2B2" stroke="#1A171B" stroke-width="0.5" stroke-linecap="round" stroke-linejoin="round" points="
		45.333,19.545 39.121,26.134 39.121,53.839 45.333,47.383 	"/>
	<polygon fill="#F2F2F2" stroke="#1A171B" stroke-width="0.5" stroke-linecap="round" stroke-linejoin="round" points="
		19.471,19.545 45.333,19.545 39.121,26.134 12.168,26.134 	"/>
	<polygon fill="#FFFFFF" stroke="#1A171B" stroke-width="0.5" stroke-linecap="round" stroke-linejoin="round" points="
		19.696,1.589 23.461,3.396 25.645,4.667 28.195,6.078 30.764,7.49 34.547,9.72 35.592,10.51 33.983,13.39 32.344,16.722 
		31.018,19.319 30.256,21.042 29.522,22.227 25.061,18.98 21.221,16.411 19.866,15.536 17.72,14.237 15.829,13.08 14.671,12.374 
		16.647,9.155 18.002,6.163 18.85,3.904 	"/>
	<polyline stroke="#1A171B" stroke-width="0.1" stroke-linecap="round" stroke-linejoin="round" points="21.871,22.425 20.882,23.3 
		37.003,23.3 37.625,22.425 	"/>
</g>
</svg>
