<?xml version="1.0" encoding="utf-8"?>
<!-- Generator: Adobe Illustrator 14.0.0, SVG Export Plug-In . SVG Version: 6.00 Build 43363)  -->
<!DOCTYPE svg PUBLIC "-//W3C//DTD SVG 1.1//EN" "http://www.w3.org/Graphics/SVG/1.1/DTD/svg11.dtd">
<svg version="1.1" id="Calque_1" xmlns="http://www.w3.org/2000/svg" xmlns:xlink="http://www.w3.org/1999/xlink" x="0px" y="0px"
	 width="85.04px" height="85.039px" viewBox="-14.174 -14.175 85.04 85.039" enable-background="new -14.174 -14.175 85.04 85.039"
	 xml:space="preserve">
<g id="Calque_2" display="none">
</g>
<g id="Calque_1_1_">
	
		<image overflow="visible" width="777" height="936" xlink:href="D78F48CB.png"  transform="matrix(0.12 0 0 0.12 -17.8457 -28.4246)">
	</image>
	<g>
		<g>
			
				<rect x="12.168" y="26.134" fill="#DDDDDD" stroke="#1A171B" stroke-width="0.5" stroke-linecap="round" stroke-linejoin="round" width="26.953" height="27.706"/>
			<polygon fill="#B2B2B2" stroke="#1A171B" stroke-width="0.5" stroke-linecap="round" stroke-linejoin="round" points="
				45.333,19.545 39.121,26.134 39.121,53.839 45.333,47.383 			"/>
			<polygon fill="#F2F2F2" stroke="#1A171B" stroke-width="0.5" stroke-linecap="round" stroke-linejoin="round" points="
				19.471,19.545 45.333,19.545 39.121,26.134 12.168,26.134 			"/>
			<polygon fill="#FFFFFF" stroke="#1A171B" stroke-width="0.5" stroke-linecap="round" stroke-linejoin="round" points="
				19.696,1.589 23.461,3.396 25.645,4.667 28.195,6.078 30.765,7.49 34.547,9.72 35.592,10.51 33.983,13.39 32.345,16.722 
				31.019,19.319 30.256,21.042 29.522,22.227 25.061,18.98 21.221,16.411 19.866,15.536 17.72,14.237 15.829,13.08 14.671,12.374 
				16.647,9.155 18.002,6.163 18.85,3.904 			"/>
			<polyline stroke="#1A171B" stroke-width="0.1" stroke-linecap="round" stroke-linejoin="round" points="21.871,22.425 
				20.882,23.3 37.003,23.3 37.625,22.425 			"/>
		</g>
	</g>
</g>
</svg>
